<svg version="1.1" xmlns="http://www.w3.org/2000/svg" viewBox="0 0 1067.95703125 739.4222412109375" width="2135.9140625" height="1478.844482421875">
  <!-- svg-source:excalidraw -->
  
  <defs>
    <style>
      @font-face {
        font-family: "Virgil";
        src: url("https://excalidraw.com/Virgil.woff2");
      }
      @font-face {
        font-family: "Cascadia";
        src: url("https://excalidraw.com/Cascadia.woff2");
      }
    </style>
  </defs>
  <rect x="0" y="0" width="1067.95703125" height="739.4222412109375" fill="#ffffff"></rect><g stroke-linecap="round" transform="translate(355.6796875 10) rotate(0 172.3671875 119.060546875)"><path d="M1 -0.07 C137.54 -2.73, 274.04 -1.04, 345.28 1.47 M-1.11 0.32 C132.88 -0.92, 265.83 -3.28, 343.71 1.23 M344.45 1.71 C346.81 76.06, 349.28 157.2, 345.98 236.01 M343.16 0.44 C342.49 87.19, 343.96 173.73, 344.43 237.96 M342.43 236.22 C219.79 238.83, 94.13 234.39, -2.6 240.15 M343.42 237.44 C215.45 233.13, 82.89 234.85, -0.38 237.48 M0.53 237.39 C2.06 189.42, 5.19 143.36, 1.25 -0.94 M0.31 239 C0.77 168.54, 1.41 102.6, -1.08 -1.52" stroke="#000000" stroke-width="1" fill="none"></path></g><g transform="translate(439.48828125 21.80859375) rotate(0 87.5 12.5)"><text x="0" y="18" font-family="Virgil, Segoe UI Emoji" font-size="20px" fill="#000000" text-anchor="start" style="white-space: pre;" direction="ltr">Country Container</text></g><g stroke-linecap="round"><g transform="translate(425.59765625 52.41015625) rotate(0 98.55139899000523 -1.0462513499104915)"><path d="M1.21 -0.3 C33.98 -0.32, 165.87 1.44, 198.68 1.36 M-1.58 -2.93 C30.88 -3.86, 164.77 -3.44, 197.94 -2.57" stroke="#000000" stroke-width="1" fill="none"></path></g></g><g transform="translate(409.21484375 69.76953125) rotate(0 103 30)"><text x="0" y="14" font-family="Virgil, Segoe UI Emoji" font-size="16px" fill="#000000" text-anchor="start" style="white-space: pre;" direction="ltr">State: Countries</text><text x="0" y="34" font-family="Virgil, Segoe UI Emoji" font-size="16px" fill="#000000" text-anchor="start" style="white-space: pre;" direction="ltr"></text><text x="0" y="54" font-family="Virgil, Segoe UI Emoji" font-size="16px" fill="#000000" text-anchor="start" style="white-space: pre;" direction="ltr">State: Selected Countries</text></g><g stroke-linecap="round" transform="translate(357 284.88671875) rotate(0 172.0546875 99.962890625)"><path d="M1.74 -1.86 C100.95 -0.3, 197.7 -4.71, 344.72 -0.44 M0.57 0.31 C79.13 5.21, 158.78 4.61, 344.24 -0.57 M346.66 -2.42 C344.22 47.73, 338.66 98.2, 343.22 201.43 M344.24 0.97 C340.38 56.11, 342.32 113.47, 342.14 201.35 M344.91 197.49 C218.64 201.21, 94.89 199.18, -2.49 197.54 M344.4 200.06 C238.67 197.26, 134.8 199.59, 0.17 198.96 M-3 196.44 C-0.93 140.23, -2.17 88.64, -0.31 -3.81 M0.12 198.99 C-3.61 135.23, -1.06 67.69, 1.36 1.13" stroke="#000000" stroke-width="1" fill="none"></path></g><g transform="translate(456.03515625 300.0859375) rotate(0 61 12.5)"><text x="0" y="18" font-family="Virgil, Segoe UI Emoji" font-size="20px" fill="#000000" text-anchor="start" style="white-space: pre;" direction="ltr">Country List</text></g><g stroke-linecap="round"><g transform="translate(430.796875 335.26953125) rotate(0 86.46142278239131 -1.7774788157641979)"><path d="M-0.75 -1.12 C28.2 -1.67, 144.26 -2.5, 173.67 -2.92 M4.04 -4.19 C32.62 -4.31, 142.91 0.09, 171.41 0.63" stroke="#000000" stroke-width="1" fill="none"></path></g></g><g transform="translate(406.5234375 354.078125) rotate(0 63.5 10)"><text x="0" y="14" font-family="Virgil, Segoe UI Emoji" font-size="16px" fill="#000000" text-anchor="start" style="white-space: pre;" direction="ltr">Props: Countries</text></g><g stroke-linecap="round"><g transform="translate(521.4143049649895 252.1102775044739) rotate(0 0.654103747880356 13.071643448621046)"><path d="M1.92 -2.03 C1.79 2.44, 1.13 20.96, 0.96 25.96 M-0.48 3.05 C-0.92 7.83, -0.09 23.55, 0.06 28.17" stroke="#000000" stroke-width="1" fill="none"></path></g><g transform="translate(521.4143049649895 252.1102775044739) rotate(0 0.654103747880356 13.071643448621046)"><path d="M-7.44 17.45 C-6.15 22.11, -2.13 23.08, 2.09 27.94 M-4.65 13.71 C-3.82 20.04, -2.67 22.25, -0.37 28.39" stroke="#000000" stroke-width="1" fill="none"></path></g><g transform="translate(521.4143049649895 252.1102775044739) rotate(0 0.654103747880356 13.071643448621046)"><path d="M2.33 17.05 C0.08 21.99, 0.57 23.1, 2.09 27.94 M5.12 13.31 C3.29 19.64, 1.77 21.96, -0.37 28.39" stroke="#000000" stroke-width="1" fill="none"></path></g></g><g stroke-linecap="round"><g transform="translate(528.6679537784772 492.0720444790402) rotate(0 1.479877534315392 18.456428212071785)"><path d="M2.61 -0.37 C3.23 6.33, 1.84 33.44, 1.42 39.95 M0.59 -3.04 C1.21 2.9, 0.52 29.93, 0.19 36.04" stroke="#000000" stroke-width="1" fill="none"></path></g><g transform="translate(528.6679537784772 492.0720444790402) rotate(0 1.479877534315392 18.456428212071785)"><path d="M-6.18 20.51 C-1.69 22.57, -2.06 27.13, -3.28 32.35 M-7.36 19.38 C-4.31 20.35, -4.97 27.95, 0.28 37.33" stroke="#000000" stroke-width="1" fill="none"></path></g><g transform="translate(528.6679537784772 492.0720444790402) rotate(0 1.479877534315392 18.456428212071785)"><path d="M6.79 20.96 C8.45 23.17, 5.24 27.62, -3.28 32.35 M5.6 19.84 C5.66 20.63, 2 28.12, 0.28 37.33" stroke="#000000" stroke-width="1" fill="none"></path></g></g><g stroke-linecap="round" transform="translate(357.75 538.1800537109375) rotate(0 174.18359375 95.62109375)"><path d="M-1.95 -2.21 C68.1 0.42, 140.79 4.18, 348.09 -1.83 M-1.11 1.27 C134.3 3, 269.28 3.1, 348.49 -0.13 M347.32 1.65 C344.61 72.42, 349.31 144.28, 348.46 189.1 M347.71 -0.26 C346.85 43.85, 350.15 88.33, 347.3 190.1 M347.57 189.29 C261.11 191.32, 171.96 188.45, 1.53 189.44 M347.62 190.07 C208.95 186.17, 69.9 187.47, -0.82 191.65 M-1.63 192.83 C3.4 129.31, 1.16 64.54, -3.73 2.07 M-0.41 190.94 C4.08 128.75, 2.19 68.02, -1.32 0.25" stroke="#000000" stroke-width="1" fill="none"></path></g><g transform="translate(482.80859375 555.7347412109375) rotate(0 47 12.5)"><text x="0" y="18" font-family="Virgil, Segoe UI Emoji" font-size="20px" fill="#000000" text-anchor="start" style="white-space: pre;" direction="ltr">List Item</text></g><g stroke-linecap="round"><g transform="translate(462.8203125 582.9183349609375) rotate(0 65.08359992712735 -0.2993559169268565)"><path d="M-0.76 -2.72 C20.38 -2.73, 104.08 -1.75, 125.43 -1.27 M4.03 1.97 C26.21 2.47, 110.66 1.59, 130.92 1.85" stroke="#000000" stroke-width="1" fill="none"></path></g></g><g transform="translate(413.26953125 596.3870849609375) rotate(0 57 10)"><text x="0" y="14" font-family="Virgil, Segoe UI Emoji" font-size="16px" fill="#000000" text-anchor="start" style="white-space: pre;" direction="ltr">Props: Country</text></g><g stroke-linecap="round" transform="translate(747.89453125 286.2318115234375) rotate(0 155.03125 99.078125)"><path d="M1.64 -1.36 C78.6 5.15, 160.25 0.81, 311 -2.02 M-0.12 -0.7 C80.87 -0.72, 164.33 -0.87, 309.69 0.32 M308.84 -2.19 C312.51 68.35, 316.56 142.59, 306.79 201.36 M308.77 0.35 C307.47 64.45, 308.04 124.42, 309.18 198.9 M307.43 197.81 C207.14 200.42, 101.66 200.06, -2.16 198.49 M310.89 197.87 C241.1 202.16, 173.16 200.56, 0.78 198.5 M3.87 196 C2.61 158.72, -3.29 114.97, 2.55 -0.09 M1.55 196.32 C-0.56 155.38, -0.06 111.09, -1.67 -0.43" stroke="#000000" stroke-width="1" fill="none"></path></g><g transform="translate(830.84765625 302.6497802734375) rotate(0 72.5 12.5)"><text x="0" y="18" font-family="Virgil, Segoe UI Emoji" font-size="20px" fill="#000000" text-anchor="start" style="white-space: pre;" direction="ltr">Country Detail</text></g><g stroke-linecap="round"><g transform="translate(816.984375 332.9232177734375) rotate(0 90.8016774366796 -0.6689668832719349)"><path d="M-1.24 -0.22 C28.46 0.37, 147.1 1.54, 177.6 1.63 M3.29 -2.81 C33.92 -2.82, 153.22 -3.39, 182.84 -2.3" stroke="#000000" stroke-width="1" fill="none"></path></g></g><g transform="translate(805.44140625 344.8294677734375) rotate(0 94 10)"><text x="0" y="14" font-family="Virgil, Segoe UI Emoji" font-size="16px" fill="#000000" text-anchor="start" style="white-space: pre;" direction="ltr">Props: Selected Country</text></g><g stroke-linecap="round"><g transform="translate(710.30859375 105.7279052734375) rotate(0 95.50839106783269 87.363655192405)"><path d="M2.56 -2.43 C34.72 26.68, 158.8 147.24, 190.51 177.16 M0.5 2.42 C32.44 32.01, 155.93 145.08, 187.82 173.47" stroke="#000000" stroke-width="1" fill="none"></path></g><g transform="translate(710.30859375 105.7279052734375) rotate(0 95.50839106783269 87.363655192405)"><path d="M156.56 160.97 C169.6 166.18, 175.34 163.92, 186.36 173.56 M161.72 163.19 C168.23 166.13, 175.44 169.32, 185.93 172.87" stroke="#000000" stroke-width="1" fill="none"></path></g><g transform="translate(710.30859375 105.7279052734375) rotate(0 95.50839106783269 87.363655192405)"><path d="M170.33 145.76 C180.72 154.44, 183.55 155.4, 186.36 173.56 M175.49 147.97 C177.84 155.16, 181.19 162.63, 185.93 172.87" stroke="#000000" stroke-width="1" fill="none"></path></g></g><g stroke-linecap="round" transform="translate(10 284.3099365234375) rotate(0 151.06640625000003 96.01171875)"><path d="M-2.54 0.82 C85.85 -3.22, 171.37 -2.39, 304.81 0.81 M0.36 1.12 C64.73 2.14, 131.43 3.14, 301.96 0.7 M301.19 1.71 C303.65 39.63, 306.36 83.22, 304.1 192.84 M301.85 -1.47 C300.5 59.1, 301.5 116.75, 302.07 192.24 M304.83 193.58 C235.15 193.1, 161.99 194.23, -2.03 193.43 M301.3 193.46 C210 194.21, 116.65 193.29, -0.48 190.64 M-1.71 190.96 C-1.27 151, 0.17 103.65, 3.09 -2.69 M-1.7 192.28 C-1.51 149.17, -2.39 107.17, 0.17 1.18" stroke="#000000" stroke-width="1" fill="none"></path></g><g transform="translate(90.73046875 298.3294677734375) rotate(0 73 12.5)"><text x="0" y="18" font-family="Virgil, Segoe UI Emoji" font-size="20px" fill="#000000" text-anchor="start" style="white-space: pre;" direction="ltr">Munro Selector</text></g><g transform="translate(72.7265625 351.0247802734375) rotate(0 75 20)"><text x="0" y="14" font-family="Virgil, Segoe UI Emoji" font-size="16px" fill="#000000" text-anchor="start" style="white-space: pre;" direction="ltr">Props: Countries</text><text x="0" y="34" font-family="Virgil, Segoe UI Emoji" font-size="16px" fill="#000000" text-anchor="start" style="white-space: pre;" direction="ltr">Function: On Select</text></g><g stroke-linecap="round"><g transform="translate(68.53125 334.4779052734375) rotate(0 97.15542997822166 -1.1222767512500411)"><path d="M1.47 -2.61 C33.99 -2.48, 163.19 -0.58, 195.49 -0.13 M-1.17 2.15 C30.94 1.53, 160.89 -3.27, 193.31 -4.39" stroke="#000000" stroke-width="1" fill="none"></path></g></g><g stroke-linecap="round"><g transform="translate(344.56096753546035 88.48519072939402) rotate(0 -93.52467942101526 92.51718709507175)"><path d="M-1.01 0.68 C-32.49 31.24, -157.43 153.15, -189.74 183.24 M3.63 -1.41 C-27.93 29.57, -158.5 155.73, -190.68 186.45" stroke="#000000" stroke-width="1" fill="none"></path></g><g transform="translate(344.56096753546035 88.48519072939402) rotate(0 -93.52467942101526 92.51718709507175)"><path d="M-176.5 162.92 C-182.17 162.8, -188.56 174.82, -189.95 185.41 M-179.22 160.27 C-181.94 170.76, -189.77 181.05, -189.3 187.46" stroke="#000000" stroke-width="1" fill="none"></path></g><g transform="translate(344.56096753546035 88.48519072939402) rotate(0 -93.52467942101526 92.51718709507175)"><path d="M-162.27 177.71 C-171.77 173.5, -181.99 181.53, -189.95 185.41 M-164.99 175.06 C-172.85 179.94, -186.06 184.63, -189.3 187.46" stroke="#000000" stroke-width="1" fill="none"></path></g></g></svg>